<svg xmlns="http://www.w3.org/2000/svg" xmlns:xlink="http://www.w3.org/1999/xlink" version="1.1" width="700" height="1000" viewBox="0 0 700 1000">
	<title>Cover of “The Miracle of the Lily”, by Clare Winger Harris</title>
	
	<rect width="700" height="1000" fill="#cccccc"/>
	
	<g transform="translate(350,865)">
		<path d="m 0,0 c 5,-5 70,-5 130,-45 60,-40 140,-130 140,-280 0,-165 -110,-320 -270,-320 -160,0 -270,155 -270,320 0,150 80,240 140,280 60,40 125,40 130,45 z" stroke="black" stroke-width="1" stroke-miterlimit="10" fill="#8a8"/>
		<path d="m 0,-7 c 10,-14 2,-23 3,-30 8,26 26,-5 6,-7 9,11 -5,13 -5,-1 0,-7 12,-7 12,-14 0,-16 -14,-12 -5,-2 -19,0 -3,-35 6,-6 2,-11 -8,-16 3,-31 11,15 1,20 3,31 9,-29 25,6 6,6 9,-10 -5,-14 -5,2 0,7 4,11 9,11 44,0 197,-77 197,-277 0,-140 -90,-280 -230,-280 -140,0 -230,140 -230,280 0,200 152,277 197,277 5,0 9,-4 9,-11 0,-16 -14,-12 -5,-2 -19,0 -3,-35 6,-6 2,-11 -8,-16 3,-31 11,15 1,20 3,31 9,-29 25,6 6,6 9,-10 -5,-14 -5,2 0,7 12,7 12,14 0,14 -14,12 -5,1 -20,2 -2,33 6,7 1,7 -7,16 3,30 z" stroke="black" stroke-width="1" stroke-miterlimit="10" fill="#faa"/>
		<g transform="translate(0,0)" stroke="#faa" stroke-width="3" fill="black">
			<g id="limbs">
				<path id="antenna" d="m 9,-440 c 5,-11 14,-21 13,-23 0,-2 1,-5 0,-7 l 0,-9 c 0,-4 -6,-7 -6,0 l 2,8 c 0,0 -2,1 -1,3 0,1 1,2 1,3 -2,0 -3,9 -12,21 z"/>
				<path id="hand" d="m 55,-423 c 17,-6 20,-6 31,-2 1,-1 4,-3 4,-6 1,-1 2,-3 2,-4 1,-1 1,-3 1,-5 1,-1 1,-3 1,-5 1,-1 1,-3 1,-5 0,0 6,-8 5,-10 -2,-4 -6,-4 -10,-3 l 2,3 -3,0 1,2 -3,0 1,2 -3,1 5,4 c -1,1 -1,4 -1,5 -1,1 -1,4 -1,5 -1,1 -1,4 -1,5 -1,0 -2,3 -2,4 l -4,1 c -6,-1 -14,-2 -26,6 z"/>
				<g id="legs">
					<path id="back-leg" d="m 42,-233 c 3,2 9,3 9,4 -5,3 -12,22 -18,35 -1,2 -12,12 -12,12 0,0 10,-4 10,-3 l -4,10 2,0 -1,9 2,1 -1,7 2,1 -1,8 2,1 c 1,9 0,15 -1,22 l 1,1 c 0,0 -6,12 -4,13 2,1 7,-12 8,-12 1,0 5,13 7,12 2,-1 -3,-14 -3,-14 l 1,-2 -5,-21 1,-1 -1,-8 1,-1 -2,-7 1,-1 -2,-8 1,-1 0,-3 4,-2 c 1,-3 1,-7 2,-10 7,-16 18,-33 18,-45 0,-5 -8,-6 -15,-12 z"/>
					<path id="middle-leg" d="m 46,-308 c 7,4 17,3 17,10 0,1 4,6 5,40 l 3,9 -4,-2 0,6 -1,1 1,8 -1,2 0,6 -1,1 0,8 -1,1 c -2,8 -1,13 1,23 l -1,1 c 2,5 3,6 6,8 -6,4 -10,-6 -10,-7 -1,0 -1,6 4,8 -7,3 -11,0 -8,-10 l -1,-3 4,-24 2,-6 -1,-1 1,-6 -1,-1 1,-7 -1,-1 2,-8 c 0,-2 -7,4 -7,4 0,-4 2,-7 5,-11 -2,-23 -2,-29 -2,-31 0,-1 -11,-3 -12,-6 z"/>
					<path id="front-leg" d="m 35,-350 c 26,-7 27,0 33,-6 1,-1 1,-3 1,-3 5,-3 22,-20 31,-35 l 6,-1 -3,-3 c 4,-9 6,-11 16,-11 l -6,-4 c 0,0 3,-6 2,-6 -2,0 -7,2 -7,1 0,-1 4,-3 4,-3 l -2,-1 4,-6 0,-2 3,-5 -1,-2 4,-6 -1,-2 c 5,-9 6,-14 13,-20 l -1,-1 c 1,-3 5,-7 6,-7 -4,-6 -8,4 -9,4 -1,0 1,-7 2,-7 0,-4 -7,-2 -6,7 l -1,0 -8,22 -2,1 -1,7 -2,1 -1,6 -2,1 -1,7 -2,0 -1,4 -3,-7 -1,8 c -1,0 -2,5 -1,6 -5,16 -26,38 -31,46 -1,0 -3,-2 -5,-2 -4,2 -16,4 -27,4 z"/>
				</g>
				
				<path id="mandible" d="m 58,-424 c 33,-17 31,-71 31,-76 0,-12 -8,-25 -13,-30 -2,-2 -5,-16 -6,-20 -1,-4 -5,-9 -6,-9 -6,0 3,18 -2,25 -7,10 -20,0 -20,6 0,7 31,4 31,18 0,13 -21,-2 -21,4 0,7 15,10 15,14 0,2 -2,1 -2,3 0,1 2,2 2,3 0,2 -1,1 -1,2 0,1 1,1 1,2 0,2 -1,1 -1,3 0,1 1,1 1,2 0,30 -39,30 -44,30 -8,0 -13,7 -13,12 0,15 28,21 48,11 z"/>
			</g>
			<use xlink:href="#limbs" transform="scale(-1,1)"/>
			
			<path id="abdomen" d="m 0,-300 35,0 0,-20 c -5,0 -13,-5 -13,-15 l -44,0 c 0,10 -8,15 -13,15 l 0,20 z"/>
			
			<path id="back" d="m 0,-332 c 10,0 38,2 38,-3 0,-5 2,-7 2,-10 0,-3 -5,-20 0,-35 l -40,-10 -40,10 c 5,15 0,32 0,35 0,3 2,5 2,10 0,5 28,3 38,3 z"/>
			
			<path id="head" d="m 0,-380 c 5,0 15,5 25,5 15,0 30,-10 30,-15 0,-10 -5,-10 -5,-20 0,-8 10,-10 10,-15 0,-2 -4,-6 -5,-5 -10,10 -45,0 -45,-15 0,-3 -7,-2 -10,-2 -3,0 -10,0 -10,2 0,15 -35,25 -45,15 -2,-2 -5,2 -5,5 0,5 10,8 10,15 0,10 -5,10 -5,20 0,5 15,15 30,15 10,0 20,-5 25,-5 z"/>
			<path id="wing" d="m 0,-177 c 25,7 60,-48 45,-143 0,-5 -20,0 -35,3 0,10 -3,12 -10,12 z"/>
			<use xlink:href="#wing" transform="scale(-1,1)"/>
		</g>
	</g>
	
	<!--
		<g id="text" font-family="Marcellus, serif" text-anchor="middle">
		  <text id="title" x="350" y="175" font-size="54px">
		    <tspan x="350" dy="-64">The Miracle</tspan>
		    <tspan x="350" dy="64">of the Lily</tspan>
		  </text>
		  <text id="author" x="350" y="930" font-size="32px">Clare Winger Harris</text>
		</g>
	-->
	<g id="text">
	  <g id="title">
	    <path d="m 216.5293,75.509766 q -3.11133,0 -5.61621,0.290039 -2.50489,0.263672 -4.32422,0.580078 -2.10938,0.395508 -3.77051,0.870117 l 0.76465,-4.271484 q 0.3164,0.02637 0.94922,0.05273 0.63281,0.02637 1.39746,0.05273 0.79101,0.02637 1.63476,0.05273 0.87012,0 1.63477,0.02637 0.76465,0 1.34473,0.02637 0.60644,0 0.87011,0 l 15.05567,0 q 0.26367,0 0.84375,0 0.60644,-0.02637 1.37109,-0.02637 0.76465,-0.02637 1.6084,-0.02637 0.87012,-0.02637 1.63476,-0.05273 0.79102,-0.02637 1.42383,-0.05273 0.63282,-0.02637 0.94922,-0.05273 L 235.06543,77.25 q -1.6875,-0.474609 -3.79688,-0.870117 -1.81933,-0.316406 -4.32421,-0.580078 -2.50489,-0.290039 -5.61621,-0.290039 l 0,25.180664 q 0,2.24121 0.0527,3.92871 0.0791,1.66113 0.1582,2.87402 0.10547,1.21289 0.23731,2.03028 0.1582,0.81738 0.3164,1.37109 l 0,0.10547 -6.30175,0 0,-0.10547 q 0.1582,-0.55371 0.29003,-1.37109 0.13184,-0.81739 0.23731,-2.03028 0.10547,-1.21289 0.1582,-2.87402 0.0527,-1.6875 0.0527,-3.92871 l 0,-25.180664 z"/>
	    <path d="m 257.29297,93.228516 q 0,-3.480469 -1.39746,-5.115235 -1.39746,-1.634765 -3.74414,-1.634765 -0.87012,0 -1.95117,0.36914 -1.05469,0.342774 -2.18848,0.949219 -1.10742,0.606445 -2.21484,1.423828 -1.10743,0.791016 -2.05665,1.6875 l 0,9.782227 q 0,2.24121 0.0527,3.92871 0.0527,1.66113 0.1582,2.87402 0.10547,1.21289 0.23731,2.03028 0.13183,0.81738 0.29004,1.37109 l 0,0.10547 -6.09082,0 0,-0.10547 q 0.1582,-0.55371 0.29003,-1.37109 0.15821,-0.81739 0.23731,-2.03028 0.10547,-1.21289 0.1582,-2.87402 0.0791,-1.6875 0.0791,-3.92871 l 0,-18.799805 q 0,-2.241211 -0.0791,-3.902344 -0.0527,-1.6875 -0.1582,-2.90039 -0.0791,-1.212891 -0.23731,-2.030274 -0.13183,-0.817383 -0.29003,-1.371094 l 0,-0.105468 6.09082,0 0,0.105468 q -0.15821,0.553711 -0.29004,1.371094 -0.13184,0.817383 -0.23731,2.030274 -0.10547,1.21289 -0.1582,2.90039 -0.0527,1.661133 -0.0527,3.902344 l 0,6.75 q 1.05469,-0.949219 2.32032,-1.87207 1.29199,-0.922852 2.66308,-1.661133 1.3711,-0.738281 2.79492,-1.186524 1.42383,-0.448242 2.79493,-0.448242 2.05664,0 3.48047,0.711914 1.45019,0.711914 2.34668,1.872071 0.92285,1.160156 1.31835,2.663086 0.42188,1.476562 0.42188,3.005859 l 0,8.964844 q 0,2.24121 0.0527,3.92871 0.0527,1.66113 0.15821,2.87402 0.10547,1.21289 0.2373,2.03028 0.13184,0.81738 0.29004,1.37109 l 0,0.10547 -6.09082,0 0,-0.10547 q 0.1582,-0.55371 0.29004,-1.37109 0.1582,-0.81739 0.2373,-2.03028 0.10547,-1.21289 0.15821,-2.87402 0.0791,-1.6875 0.0791,-3.92871 l 0,-7.461914 z"/>
	    <path d="m 281.65625,111.47461 q -2.92676,0 -5.48437,-0.92285 -2.55762,-0.92285 -4.45606,-2.68946 -1.89844,-1.79296 -3.00586,-4.40332 -1.08105,-2.63671 -1.08105,-6.011714 0,-2.979493 1.00195,-5.510743 1.00195,-2.557617 2.76855,-4.429687 1.76661,-1.87207 4.11329,-2.926758 2.37304,-1.054687 5.11523,-1.054687 2.71582,0 5.03613,0.949218 2.32032,0.922852 4.00782,2.715821 1.71386,1.766601 2.68945,4.40332 1.00195,2.610352 1.08105,5.958984 -2.97949,-0.05273 -5.95898,-0.0791 -2.97949,-0.02637 -6.19629,-0.02637 -2.29395,0 -4.48242,0.02637 -2.16211,0.02637 -3.90235,0.0791 0.15821,2.742186 0.84375,4.957036 0.71192,2.21484 1.92481,3.79687 1.23926,1.55566 2.97949,2.39941 1.7666,0.84375 3.98145,0.84375 1.52929,0 2.87402,-0.34277 1.37109,-0.36914 2.47852,-1.00195 1.10742,-0.63281 1.97753,-1.47656 0.87012,-0.87012 1.47657,-1.87207 l 0.3164,0.1582 -1.95117,4.69336 q -1.42383,0.73828 -3.40137,1.26562 -1.97754,0.50098 -4.74609,0.50098 z m -3.50684,-16.083985 q 2.63672,0 5.27344,0 2.66309,-0.02637 4.8252,-0.105469 -0.23731,-2.293945 -0.89649,-4.113281 -0.65918,-1.819336 -1.6875,-3.084961 -1.02832,-1.265625 -2.42578,-1.951172 -1.39746,-0.685547 -3.08496,-0.685547 -1.5293,0 -2.82129,0.685547 -1.26562,0.65918 -2.21484,1.924805 -0.94922,1.265625 -1.5293,3.111328 -0.58008,1.819336 -0.68555,4.166016 1.18653,0.05273 2.50489,0.05273 1.31836,0 2.74218,0 z"/>
	    <path d="m 313.24414,110.89453 q 0.29004,-0.42187 0.65918,-1.23926 0.36914,-0.84375 0.58008,-2.10937 0.29004,-1.8457 0.63281,-4.13965 0.36914,-2.32031 0.73828,-4.851563 0.39551,-2.531249 0.76465,-5.167968 0.39551,-2.663086 0.73828,-5.220703 0.36914,-2.583985 0.68555,-4.957032 0.34277,-2.399414 0.60644,-4.376953 0.26368,-1.977539 0.42188,-3.427734 0.18457,-1.476563 0.26367,-2.214844 l 3.34863,0 16.58496,31.007817 16.45313,-31.007817 2.50488,0 4.32422,31.324217 q 0.18457,1.47656 0.39551,2.53125 0.21094,1.05469 0.42187,1.81934 0.21094,0.73828 0.39551,1.23926 0.21094,0.47461 0.39551,0.79101 l 0,0.10547 -6.64453,0 0,-0.10547 q 0.13183,-0.29004 0.2373,-0.94922 0.13184,-0.65918 0.13184,-1.58203 0,-0.34277 -0.0264,-0.68555 -0.0264,-0.36914 -0.0791,-0.79101 l -3.34863,-25.259767 -15.55664,29.267577 -1.81934,-0.21094 -15.66211,-29.320309 q -0.92285,6.249024 -1.6084,11.548828 -0.29004,2.267579 -0.58007,4.535157 -0.29004,2.241211 -0.52735,4.192384 -0.21094,1.95117 -0.34277,3.4541 -0.13184,1.47656 -0.13184,2.18848 0,0.89648 0.0527,1.58203 0.0527,0.68554 0.10547,1.16015 0.0791,0.55372 0.1582,0.97559 l -5.27344,0 0,-0.10547 z"/>
	    <path d="m 370.51367,94.30957 q 0,-2.241211 -0.0791,-3.902343 -0.0527,-1.6875 -0.1582,-2.900391 -0.0791,-1.212891 -0.23731,-2.030273 -0.13183,-0.817383 -0.29004,-1.371094 l 0,-0.105469 6.09082,0 0,0.105469 q -0.1582,0.553711 -0.29004,1.371094 -0.13183,0.817382 -0.2373,2.030273 -0.10547,1.212891 -0.1582,2.900391 -0.0527,1.661132 -0.0527,3.902343 l 0,6.38086 q 0,2.24121 0.0527,3.92871 0.0527,1.66113 0.1582,2.87402 0.10547,1.21289 0.2373,2.03028 0.13184,0.81738 0.29004,1.37109 l 0,0.10547 -6.09082,0 0,-0.10547 q 0.15821,-0.55371 0.29004,-1.37109 0.15821,-0.81739 0.23731,-2.03028 0.10547,-1.21289 0.1582,-2.87402 0.0791,-1.6875 0.0791,-3.92871 l 0,-6.38086 z m -0.55371,-18.298828 q 0,-0.580078 0.21094,-1.081055 0.2373,-0.527343 0.60644,-0.896484 0.36914,-0.395508 0.87012,-0.606445 0.52734,-0.237305 1.13379,-0.237305 0.60645,0 1.10742,0.237305 0.52735,0.210937 0.89649,0.606445 0.3955,0.369141 0.60644,0.896484 0.23731,0.500977 0.23731,1.081055 0,1.212891 -0.81739,2.030274 -0.81738,0.817382 -2.03027,0.817382 -0.60645,0 -1.13379,-0.210937 -0.50098,-0.237305 -0.87012,-0.606445 -0.36914,-0.395508 -0.60644,-0.896485 -0.21094,-0.527344 -0.21094,-1.133789 z"/>
	    <path d="m 383.43359,94.30957 q 0,-2.241211 -0.0791,-3.902343 -0.0527,-1.6875 -0.1582,-2.900391 -0.0791,-1.212891 -0.23731,-2.030273 -0.13183,-0.817383 -0.29003,-1.371094 l 0,-0.105469 6.09082,0 0,0.105469 q -0.21094,0.606445 -0.36914,1.476562 -0.13184,0.870117 -0.21094,2.241211 0.97558,-0.817383 2.03027,-1.608398 1.05469,-0.791016 2.16211,-1.397461 1.10742,-0.606445 2.24121,-0.975586 1.16016,-0.369141 2.32031,-0.369141 0.71192,0 1.23926,0.0791 0.52735,0.05273 0.94922,0.18457 0.42188,0.105469 0.76465,0.263672 0.34277,0.131836 0.65918,0.263672 l -1.29199,5.036133 -0.44825,-0.105469 q -0.3164,-1.160156 -1.18652,-1.845703 -0.87012,-0.711914 -2.37305,-0.711914 -0.81738,0 -1.71386,0.290039 -0.89649,0.290039 -1.81934,0.817383 -0.92285,0.500976 -1.8457,1.186523 -0.92285,0.65918 -1.79297,1.397461 -0.0527,0.764648 -0.0527,1.661133 0,0.896484 0,1.898437 l 0,6.802735 q 0,2.24121 0.0527,3.92871 0.0527,1.66113 0.1582,2.87402 0.10547,1.21289 0.23731,2.03028 0.13183,0.81738 0.29004,1.37109 l 0,0.10547 -6.09082,0 0,-0.10547 q 0.1582,-0.55371 0.29003,-1.37109 0.15821,-0.81739 0.23731,-2.03028 0.10547,-1.21289 0.1582,-2.87402 0.0791,-1.6875 0.0791,-3.92871 l 0,-6.38086 z"/>
	    <path d="m 401.46875,103.22168 q 0,-2.08301 0.84375,-3.612305 0.87012,-1.529297 2.29395,-2.610352 1.42382,-1.081054 3.24316,-1.740234 1.81934,-0.685547 3.77051,-1.054687 1.95117,-0.395508 3.84961,-0.527344 1.89843,-0.158203 3.48047,-0.18457 l 0,-1.344727 q 0,-1.740234 -0.44825,-3.005859 -0.44824,-1.265625 -1.26562,-2.083008 -0.81738,-0.84375 -1.97754,-1.239258 -1.13379,-0.421875 -2.50488,-0.421875 -0.94922,0 -1.87207,0.158203 -0.92286,0.158203 -1.92481,0.527344 -0.97558,0.36914 -2.08301,1.001953 -1.08105,0.632812 -2.34668,1.608398 l -0.26367,-0.158203 1.79297,-3.717773 q 0.87012,-0.395508 1.71387,-0.632813 0.84375,-0.263672 1.71387,-0.421875 0.87011,-0.158203 1.7666,-0.210937 0.92285,-0.0791 1.9248,-0.0791 2.76856,0 4.71973,0.685547 1.97754,0.65918 3.21679,1.845703 1.26563,1.160157 1.84571,2.742188 0.58008,1.555664 0.58008,3.348633 l 0,8.595703 q 0,2.24121 0.0527,3.92871 0.0791,1.66113 0.1582,2.87402 0.10547,1.21289 0.23731,2.03028 0.1582,0.81738 0.3164,1.37109 l 0,0.10547 -5.82714,0 0,-0.10547 q 0.13183,-0.42187 0.18457,-0.94922 0.0791,-0.52734 0.13183,-1.26562 -0.55371,0.47461 -1.31836,0.97558 -0.73828,0.50098 -1.71386,0.92286 -0.94922,0.3955 -2.13575,0.63281 -1.16015,0.26367 -2.55761,0.26367 -4.58789,0 -7.09278,-2.13574 -2.50488,-2.16211 -2.50488,-6.11719 z m 17.48145,-7.672852 q -2.39942,0.02637 -4.61426,0.290039 -2.21485,0.237305 -3.92871,1.02832 -1.6875,0.791016 -2.71582,2.267579 -1.00196,1.450194 -1.00196,3.875974 0,3.11133 1.55567,4.7461 1.55566,1.63476 4.29785,1.63476 1.26562,0 2.29394,-0.34277 1.05469,-0.36914 1.84571,-0.89649 0.81738,-0.55371 1.37109,-1.18652 0.55371,-0.65918 0.84375,-1.26562 0.0527,-1.00196 0.0527,-2.21485 0,-1.23926 0,-2.79492 l 0,-5.141602 z"/>
	    <path d="m 453.43848,105.38379 -1.95118,4.69336 q -0.71191,0.3164 -1.63476,0.58008 -0.92285,0.26367 -1.92481,0.44824 -0.97558,0.18457 -1.97753,0.26367 -1.00196,0.10547 -1.89844,0.10547 -3.19043,0 -5.90625,-0.92285 -2.68946,-0.94922 -4.66699,-2.74219 -1.95118,-1.79297 -3.0586,-4.40332 -1.10742,-2.61035 -1.10742,-5.958984 0,-2.979493 1.13379,-5.510743 1.16016,-2.557617 3.19043,-4.429687 2.05664,-1.87207 4.82519,-2.926758 2.76856,-1.054687 6.01172,-1.054687 1.47657,0 3.16407,0.263671 1.6875,0.237305 3.00585,0.632813 l 1.87208,4.482422 -0.31641,0.18457 q -0.65918,-0.817383 -1.58203,-1.476562 -0.89649,-0.685547 -2.00391,-1.160157 -1.08105,-0.474609 -2.29394,-0.738281 -1.21289,-0.263672 -2.47852,-0.263672 -2.05664,0 -3.74414,0.738282 -1.6875,0.711914 -2.90039,2.083007 -1.21289,1.371094 -1.89844,3.375 -0.65918,1.977539 -0.65918,4.508789 0,2.847657 0.63281,5.299807 0.65918,2.45215 1.92481,4.27148 1.29199,1.79297 3.2168,2.82129 1.95117,1.00195 4.56152,1.00195 1.21289,0 2.39941,-0.29003 1.21289,-0.31641 2.26758,-0.87012 1.08106,-0.58008 1.97754,-1.3711 0.89649,-0.79101 1.50293,-1.79296 l 0.31641,0.1582 z"/>
	    <path d="m 459.00195,81.890625 q 0,-2.241211 -0.0791,-3.902344 -0.0527,-1.6875 -0.1582,-2.90039 -0.0791,-1.212891 -0.23731,-2.030274 -0.13183,-0.817383 -0.29004,-1.371094 l 0,-0.105468 6.09083,0 0,0.105468 q -0.15821,0.553711 -0.29004,1.371094 -0.13184,0.817383 -0.23731,2.030274 -0.10547,1.21289 -0.1582,2.90039 -0.0527,1.661133 -0.0527,3.902344 l 0,18.799805 q 0,2.24121 0.0527,3.92871 0.0527,1.66113 0.1582,2.87402 0.10547,1.21289 0.23731,2.03028 0.13183,0.81738 0.29004,1.37109 l 0,0.10547 -6.09083,0 0,-0.10547 q 0.15821,-0.55371 0.29004,-1.37109 0.15821,-0.81739 0.23731,-2.03028 0.10547,-1.21289 0.1582,-2.87402 0.0791,-1.6875 0.0791,-3.92871 l 0,-18.799805 z"/>
	    <path d="m 483.73438,111.47461 q -2.92676,0 -5.48438,-0.92285 -2.55762,-0.92285 -4.45605,-2.68946 -1.89844,-1.79296 -3.00586,-4.40332 -1.08106,-2.63671 -1.08106,-6.011714 0,-2.979493 1.00195,-5.510743 1.00196,-2.557617 2.76856,-4.429687 1.7666,-1.87207 4.11328,-2.926758 2.37305,-1.054687 5.11523,-1.054687 2.71583,0 5.03614,0.949218 2.32031,0.922852 4.00781,2.715821 1.71387,1.766601 2.68945,4.40332 1.00196,2.610352 1.08106,5.958984 -2.97949,-0.05273 -5.95899,-0.0791 -2.97949,-0.02637 -6.19629,-0.02637 -2.29394,0 -4.48242,0.02637 -2.16211,0.02637 -3.90234,0.0791 0.1582,2.742186 0.84375,4.957036 0.71191,2.21484 1.9248,3.79687 1.23926,1.55566 2.9795,2.39941 1.7666,0.84375 3.98144,0.84375 1.5293,0 2.87402,-0.34277 1.3711,-0.36914 2.47852,-1.00195 1.10742,-0.63281 1.97754,-1.47656 0.87012,-0.87012 1.47656,-1.87207 l 0.31641,0.1582 -1.95117,4.69336 q -1.42383,0.73828 -3.40137,1.26562 -1.97754,0.50098 -4.74609,0.50098 z m -3.50684,-16.083985 q 2.63672,0 5.27344,0 2.66308,-0.02637 4.82519,-0.105469 -0.2373,-2.293945 -0.89648,-4.113281 -0.65918,-1.819336 -1.6875,-3.084961 -1.02832,-1.265625 -2.42578,-1.951172 -1.39746,-0.685547 -3.08496,-0.685547 -1.5293,0 -2.82129,0.685547 -1.26563,0.65918 -2.21485,1.924805 -0.94922,1.265625 -1.52929,3.111328 -0.58008,1.819336 -0.68555,4.166016 1.18652,0.05273 2.50488,0.05273 1.31836,0 2.74219,0 z"/>
	    <path d="m 231.24219,161.44727 q 0,-2.9795 1.10742,-5.51075 1.10742,-2.55761 3.03223,-4.42968 1.95117,-1.87207 4.58789,-2.92676 2.63672,-1.05469 5.66894,-1.05469 2.97949,0 5.58985,1.00195 2.63671,0.97559 4.58789,2.79493 1.95117,1.81933 3.05859,4.42968 1.13379,2.61035 1.13379,5.85352 0,2.71582 -0.94922,5.2207 -0.94922,2.50488 -2.79492,4.42969 -1.8457,1.9248 -4.53516,3.08496 -2.66308,1.13379 -6.14355,1.13379 -2.95313,0 -5.56348,-0.97559 -2.61035,-0.97558 -4.56152,-2.79492 -1.95117,-1.81933 -3.08496,-4.40332 -1.13379,-2.61035 -1.13379,-5.85351 z m 14.95019,12.10253 q 1.87207,0 3.42774,-0.73828 1.58203,-0.73828 2.71582,-2.13574 1.13379,-1.39746 1.7666,-3.40137 0.63281,-2.0039 0.63281,-4.53515 0,-2.84766 -0.60644,-5.27344 -0.60645,-2.45215 -1.81934,-4.21875 -1.18652,-1.79297 -3.00586,-2.79492 -1.81933,-1.00195 -4.24512,-1.00195 -1.87207,0 -3.42773,0.73828 -1.55566,0.71191 -2.71582,2.083 -1.13379,1.3711 -1.7666,3.375 -0.63281,1.97754 -0.63281,4.50879 0,2.84766 0.60644,5.29981 0.63281,2.45215 1.8457,4.27148 1.21289,1.79297 3.00586,2.82129 1.81934,1.00195 4.21875,1.00195 z"/>
	    <path d="m 275.69727,137.24219 q -0.65918,0 -1.42383,0.2373 -0.73828,0.23731 -1.3711,0.87012 -0.63281,0.63281 -1.05468,1.7666 -0.42188,1.10742 -0.42188,2.87402 l 0,5.00977 q 1.39746,-0.0264 2.61035,-0.0791 1.23926,-0.0527 2.21485,-0.10547 0.97558,-0.0527 1.63476,-0.10547 0.65918,-0.0791 0.94922,-0.13183 l -0.47461,2.68945 q -0.92285,-0.0264 -2.0039,-0.0791 -0.92286,-0.0527 -2.18848,-0.0791 -1.26563,-0.0264 -2.74219,-0.0527 l 0,14.63379 q 0,2.24121 0.0527,3.92871 0.0791,1.66113 0.1582,2.87402 0.10547,1.21289 0.2373,2.03028 0.15821,0.81738 0.31641,1.37109 l 0,0.10547 -6.09082,0 0,-0.10547 q 0.1582,-0.55371 0.29004,-1.37109 0.13183,-0.81739 0.2373,-2.03028 0.10547,-1.21289 0.15821,-2.87402 0.0527,-1.6875 0.0527,-3.92871 l 0,-14.63379 -4.42969,0.1582 0,-2.32031 q 0.81739,0.0527 1.95118,0.0791 1.13378,0.0264 2.47851,0.0264 l 0,-4.42969 q 0,-2.03027 0.58008,-3.58593 0.60644,-1.58204 1.66113,-2.63672 1.05469,-1.08106 2.53125,-1.63477 1.47656,-0.55371 3.24317,-0.55371 0.97558,0 1.81933,0.13184 0.84375,0.13183 1.50293,0.3164 0.68555,0.18457 1.18652,0.39551 0.52735,0.18457 0.87012,0.34277 l 1.02832,4.53516 -0.3164,0.1582 q -0.42188,-0.63281 -0.92286,-1.29199 -0.50097,-0.68555 -1.13378,-1.23926 -0.63282,-0.55371 -1.42383,-0.89648 -0.76465,-0.36914 -1.7666,-0.36914 z"/>
	    <path d="m 309.02539,173.44434 q 0.79102,0 1.55566,-0.29004 0.79102,-0.29004 1.50293,-0.79102 0.73829,-0.50098 1.39747,-1.13379 0.68554,-0.65918 1.26562,-1.37109 l 0.26367,0.13183 -1.71386,4.24512 q -0.31641,0.1582 -0.79102,0.39551 -0.44824,0.21094 -1.10742,0.39551 -0.63281,0.21093 -1.50293,0.34277 -0.87012,0.1582 -2.05664,0.1582 -3.53321,0 -5.51074,-1.89843 -1.95118,-1.92481 -1.95118,-5.98536 l 0,-17.58691 -4.42968,0.1582 0,-2.32031 q 0.81738,0.0527 1.95117,0.0791 1.13379,0.0264 2.47851,0.0264 -0.0264,-1.87207 -0.10547,-3.2959 -0.0527,-1.45019 -0.1582,-2.50488 -0.0791,-1.08106 -0.21094,-1.81934 -0.13183,-0.73828 -0.26367,-1.23925 l 0,-0.10547 6.09082,0 0,0.10547 q -0.1582,0.50097 -0.29004,1.23925 -0.13183,0.73828 -0.2373,1.79297 -0.0791,1.05469 -0.1582,2.50488 -0.0527,1.42383 -0.0791,3.32227 1.66114,-0.0264 3.24317,-0.0527 1.6084,-0.0527 2.90039,-0.10547 1.31836,-0.0791 2.21484,-0.13184 0.92285,-0.0791 1.21289,-0.13183 l -0.47461,2.68945 q -1.34472,-0.0264 -2.82129,-0.0791 -1.26562,-0.0527 -2.90039,-0.0791 -1.63476,-0.0264 -3.375,-0.0527 l 0,18.14063 q 0,1.63476 0.34278,2.66308 0.36914,1.00195 0.92285,1.58203 0.58008,0.58008 1.29199,0.79102 0.73828,0.21094 1.50293,0.21094 z"/>
	    <path d="m 338.39844,157.22852 q 0,-3.48047 -1.39746,-5.11524 -1.39746,-1.63476 -3.74414,-1.63476 -0.87012,0 -1.95118,0.36914 -1.05468,0.34277 -2.18847,0.94922 -1.10742,0.60644 -2.21485,1.42382 -1.10742,0.79102 -2.05664,1.6875 l 0,9.78223 q 0,2.24121 0.0527,3.92871 0.0527,1.66113 0.1582,2.87402 0.10547,1.21289 0.23731,2.03028 0.13183,0.81738 0.29003,1.37109 l 0,0.10547 -6.09082,0 0,-0.10547 q 0.15821,-0.55371 0.29004,-1.37109 0.15821,-0.81739 0.23731,-2.03028 0.10547,-1.21289 0.1582,-2.87402 0.0791,-1.6875 0.0791,-3.92871 l 0,-18.7998 q 0,-2.24122 -0.0791,-3.90235 -0.0527,-1.6875 -0.1582,-2.90039 -0.0791,-1.21289 -0.23731,-2.03027 -0.13183,-0.81739 -0.29004,-1.3711 l 0,-0.10547 6.09082,0 0,0.10547 q -0.1582,0.55371 -0.29003,1.3711 -0.13184,0.81738 -0.23731,2.03027 -0.10547,1.21289 -0.1582,2.90039 -0.0527,1.66113 -0.0527,3.90235 l 0,6.75 q 1.05469,-0.94922 2.32032,-1.87208 1.29199,-0.92285 2.66308,-1.66113 1.3711,-0.73828 2.79492,-1.18652 1.42383,-0.44824 2.79493,-0.44824 2.05664,0 3.48046,0.71191 1.4502,0.71191 2.34668,1.87207 0.92286,1.16016 1.31836,2.66309 0.42188,1.47656 0.42188,3.00586 l 0,8.96484 q 0,2.24121 0.0527,3.92871 0.0527,1.66113 0.15821,2.87402 0.10546,1.21289 0.2373,2.03028 0.13184,0.81738 0.29004,1.37109 l 0,0.10547 -6.09082,0 0,-0.10547 q 0.1582,-0.55371 0.29004,-1.37109 0.1582,-0.81739 0.2373,-2.03028 0.10547,-1.21289 0.15821,-2.87402 0.0791,-1.6875 0.0791,-3.92871 l 0,-7.46191 z"/>
	    <path d="m 362.76172,175.47461 q -2.92676,0 -5.48438,-0.92285 -2.55761,-0.92285 -4.45605,-2.68946 -1.89844,-1.79296 -3.00586,-4.40332 -1.08105,-2.63671 -1.08105,-6.01171 0,-2.9795 1.00195,-5.51075 1.00195,-2.55761 2.76855,-4.42968 1.7666,-1.87207 4.11328,-2.92676 2.37305,-1.05469 5.11524,-1.05469 2.71582,0 5.03613,0.94922 2.32031,0.92285 4.00781,2.71582 1.71387,1.7666 2.68946,4.40332 1.00195,2.61035 1.08105,5.95898 -2.97949,-0.0527 -5.95898,-0.0791 -2.97949,-0.0264 -6.19629,-0.0264 -2.29395,0 -4.48242,0.0264 -2.16211,0.0264 -3.90235,0.0791 0.15821,2.74219 0.84375,4.95704 0.71192,2.21484 1.92481,3.79687 1.23926,1.55566 2.97949,2.39941 1.7666,0.84375 3.98144,0.84375 1.5293,0 2.87403,-0.34277 1.37109,-0.36914 2.47851,-1.00195 1.10743,-0.63281 1.97754,-1.47656 0.87012,-0.87012 1.47657,-1.87207 l 0.3164,0.1582 -1.95117,4.69336 q -1.42383,0.73828 -3.40137,1.26562 -1.97754,0.50098 -4.74609,0.50098 z m -3.50684,-16.08398 q 2.63672,0 5.27344,0 2.66309,-0.0264 4.8252,-0.10547 -0.23731,-2.29395 -0.89649,-4.11328 -0.65918,-1.81934 -1.6875,-3.08497 -1.02832,-1.26562 -2.42578,-1.95117 -1.39746,-0.68554 -3.08496,-0.68554 -1.5293,0 -2.82129,0.68554 -1.26562,0.65918 -2.21484,1.92481 -0.94922,1.26562 -1.5293,3.11133 -0.58008,1.81933 -0.68555,4.16601 1.18653,0.0527 2.50489,0.0527 1.31835,0 2.74218,0 z"/>
	    <path d="m 401.78516,172.67969 q 3.11132,0 5.72168,-0.26367 2.61035,-0.26368 4.56152,-0.60645 2.26758,-0.36914 4.13965,-0.87012 l -0.76465,4.27149 q -0.31641,-0.0264 -0.94922,-0.0527 -0.63281,-0.0264 -1.42383,-0.0527 -0.76465,-0.0264 -1.63476,-0.0527 -0.84375,0 -1.6084,-0.0264 -0.76465,0 -1.3711,-0.0264 -0.58007,0 -0.84375,0 l -11.39062,0 0,-0.10547 q 0.1582,-0.55371 0.29004,-1.37109 0.1582,-0.81739 0.26367,-2.03028 0.10547,-1.21289 0.1582,-2.87402 0.0527,-1.6875 0.0527,-3.92871 l 0,-17.16504 q 0,-2.24121 -0.0527,-3.90234 -0.0527,-1.6875 -0.1582,-2.90039 -0.10547,-1.23926 -0.26367,-2.05664 -0.13184,-0.81739 -0.29004,-1.3711 l 0,-0.10547 6.32812,0 0,0.10547 q -0.1582,0.55371 -0.3164,1.3711 -0.13184,0.81738 -0.23731,2.05664 -0.0791,1.21289 -0.1582,2.90039 -0.0527,1.66113 -0.0527,3.90234 l 0,25.1543 z"/>
	    <path d="m 421.56055,158.30957 q 0,-2.24121 -0.0791,-3.90234 -0.0527,-1.6875 -0.15821,-2.90039 -0.0791,-1.21289 -0.2373,-2.03028 -0.13184,-0.81738 -0.29004,-1.37109 l 0,-0.10547 6.09082,0 0,0.10547 q -0.1582,0.55371 -0.29004,1.37109 -0.13184,0.81739 -0.2373,2.03028 -0.10547,1.21289 -0.15821,2.90039 -0.0527,1.66113 -0.0527,3.90234 l 0,6.38086 q 0,2.24121 0.0527,3.92871 0.0527,1.66113 0.15821,2.87402 0.10546,1.21289 0.2373,2.03028 0.13184,0.81738 0.29004,1.37109 l 0,0.10547 -6.09082,0 0,-0.10547 q 0.1582,-0.55371 0.29004,-1.37109 0.1582,-0.81739 0.2373,-2.03028 0.10547,-1.21289 0.15821,-2.87402 0.0791,-1.6875 0.0791,-3.92871 l 0,-6.38086 z m -0.55371,-18.29883 q 0,-0.58008 0.21093,-1.08105 0.23731,-0.52735 0.60645,-0.89649 0.36914,-0.3955 0.87012,-0.60644 0.52734,-0.23731 1.13379,-0.23731 0.60644,0 1.10742,0.23731 0.52734,0.21094 0.89648,0.60644 0.39551,0.36914 0.60645,0.89649 0.2373,0.50097 0.2373,1.08105 0,1.21289 -0.81738,2.03028 -0.81738,0.81738 -2.03027,0.81738 -0.60645,0 -1.13379,-0.21094 -0.50098,-0.2373 -0.87012,-0.60644 -0.36914,-0.39551 -0.60645,-0.89649 -0.21093,-0.52734 -0.21093,-1.13379 z"/>
	    <path d="m 434.63867,145.89063 q 0,-2.24122 -0.0791,-3.90235 -0.0527,-1.6875 -0.1582,-2.90039 -0.0791,-1.21289 -0.23731,-2.03027 -0.13183,-0.81739 -0.29004,-1.3711 l 0,-0.10547 6.09082,0 0,0.10547 q -0.1582,0.55371 -0.29004,1.3711 -0.13183,0.81738 -0.2373,2.03027 -0.10547,1.21289 -0.1582,2.90039 -0.0527,1.66113 -0.0527,3.90235 l 0,18.7998 q 0,2.24121 0.0527,3.92871 0.0527,1.66113 0.1582,2.87402 0.10547,1.21289 0.2373,2.03028 0.13184,0.81738 0.29004,1.37109 l 0,0.10547 -6.09082,0 0,-0.10547 q 0.15821,-0.55371 0.29004,-1.37109 0.15821,-0.81739 0.23731,-2.03028 0.10547,-1.21289 0.1582,-2.87402 0.0791,-1.6875 0.0791,-3.92871 l 0,-18.7998 z"/>
	    <path d="m 456.02246,174.68359 -9.28125,-20.30273 q -0.50098,-1.16016 -1.08105,-2.21484 -0.58008,-1.08106 -1.10743,-1.92481 -0.50097,-0.84375 -0.89648,-1.39746 -0.39551,-0.58008 -0.52734,-0.73828 l 0,-0.10547 6.9082,0 0,0.10547 q -0.0527,0.13183 -0.0791,0.39551 -0.0264,0.26367 -0.0264,0.47461 0,0.81738 0.23731,1.81933 0.26367,0.97559 0.94921,2.45215 l 7.27735,15.82031 6.64453,-15.60937 q 0.42187,-0.97559 0.84375,-2.13574 0.44824,-1.16016 0.44824,-2.34668 0,-0.34278 -0.0527,-0.55371 -0.0527,-0.23731 -0.10547,-0.31641 l 0,-0.10547 4.74609,0 0,0.10547 q -0.47461,0.50098 -1.21289,1.79297 -0.71191,1.26562 -1.5293,3.19043 l -12.57714,29.95312 q -0.42188,0.97559 -0.87012,2.13574 -0.42188,1.16016 -0.42188,2.34668 0,0.34278 0.0527,0.55372 0.0527,0.2373 0.10547,0.3164 l 0,0.10547 -4.93067,0 0,-0.10547 q 0.50098,-0.50098 1.21289,-1.7666 0.73828,-1.23926 1.55567,-3.1377 l 3.71777,-8.80664 z"/>
	  </g>
	  <g id="author">
	    <path d="m 227.42188,911.03125 -0.14063,0.0625 q -1.21875,-1.125 -2.9375,-1.79688 -1.70312,-0.67187 -3.75,-0.67187 -1.96875,0 -3.60937,0.625 -1.64063,0.60938 -2.82813,1.78125 -1.17187,1.17187 -1.82812,2.875 -0.65625,1.70313 -0.65625,3.875 0,2.39062 0.625,4.46875 0.625,2.0625 1.85937,3.57813 1.23438,1.51562 3.07813,2.39062 1.85937,0.85937 4.32812,0.85937 0.89063,0 1.78125,-0.18749 0.89063,-0.1875 1.70313,-0.54688 0.82812,-0.375 1.54687,-0.89063 0.73438,-0.53124 1.32813,-1.20312 l 0.17187,0.10937 -1.25,3.18751 Q 225.67188,930 224.25,930.23437 q -1.40625,0.25 -2.84375,0.25 -2.89062,0 -5.29687,-0.82812 -2.39063,-0.84375 -4.125,-2.375 -1.71875,-1.53125 -2.6875,-3.67187 -0.95313,-2.15626 -0.95313,-4.78125 0,-1.48438 0.375,-2.92188 0.39063,-1.4375 1.125,-2.73438 0.73438,-1.29687 1.8125,-2.37499 1.07813,-1.09375 2.45313,-1.89063 1.39062,-0.79688 3.04687,-1.23437 1.67188,-0.45313 3.60938,-0.45313 3.01562,0 5.59375,0.92187 l 1.0625,2.89063 z"/>
	    <path d="m 231.25,912.75 q 0,-1.32813 -0.0469,-2.3125 -0.0313,-1 -0.0937,-1.71875 -0.0469,-0.71875 -0.14063,-1.20312 -0.0781,-0.48438 -0.17187,-0.8125 l 0,-0.0625 3.60937,0 0,0.0625 q -0.0937,0.32812 -0.17187,0.8125 -0.0781,0.48437 -0.14063,1.20312 -0.0625,0.71875 -0.0937,1.71875 -0.0313,0.98437 -0.0313,2.3125 l 0,11.14063 q 0,1.32812 0.0313,2.32812 0.0313,0.98437 0.0937,1.70313 0.0625,0.71875 0.14063,1.20312 0.0781,0.48438 0.17187,0.8125 l 0,0.0625 -3.60937,0 0,-0.0625 q 0.0937,-0.32812 0.17187,-0.8125 0.0937,-0.48437 0.14063,-1.20312 0.0625,-0.71876 0.0937,-1.70313 0.0469,-1 0.0469,-2.32812 l 0,-11.14063 z"/>
	    <path d="m 237.65625,925.39062 q 0,-1.23437 0.5,-2.14062 0.51563,-0.90625 1.35938,-1.54687 0.84375,-0.64063 1.92187,-1.03125 1.07813,-0.40626 2.23438,-0.62501 1.15625,-0.23437 2.28125,-0.31249 1.125,-0.0937 2.0625,-0.10938 l 0,-0.79687 q 0,-1.03125 -0.26563,-1.78126 -0.26562,-0.75 -0.75,-1.23437 -0.48437,-0.5 -1.17187,-0.73438 -0.67188,-0.24999 -1.48438,-0.24999 -0.5625,0 -1.10937,0.0937 -0.54688,0.0937 -1.14063,0.31249 -0.57812,0.21875 -1.23437,0.59376 -0.64063,0.37499 -1.39063,0.95312 l -0.15625,-0.0937 1.0625,-2.20313 q 0.51563,-0.23437 1.01563,-0.375 0.5,-0.15624 1.01562,-0.24999 0.51563,-0.0937 1.04688,-0.125 0.54687,-0.0469 1.14062,-0.0469 1.64063,0 2.79688,0.40625 1.17187,0.39062 1.90625,1.09375 0.75,0.6875 1.09375,1.625 0.34375,0.92188 0.34375,1.98438 l 0,5.09375 q 0,1.32812 0.0313,2.32812 0.0469,0.98437 0.0937,1.70313 0.0625,0.71875 0.14062,1.20312 0.0937,0.48438 0.1875,0.8125 l 0,0.0625 -3.45312,0 0,-0.0625 q 0.0781,-0.25 0.10937,-0.5625 0.0469,-0.3125 0.0781,-0.75 -0.32813,0.28125 -0.78125,0.57812 -0.4375,0.29688 -1.01563,0.54688 -0.5625,0.23438 -1.26562,0.375 -0.6875,0.15625 -1.51563,0.15625 -2.71875,0 -4.20312,-1.26563 -1.48438,-1.28124 -1.48438,-3.625 z m 10.35938,-4.54687 q -1.42188,0.0156 -2.73438,0.17187 -1.3125,0.14063 -2.32812,0.60938 -1,0.46875 -1.60938,1.34375 -0.59375,0.85938 -0.59375,2.29687 0,1.84375 0.92188,2.8125 0.92187,0.96875 2.54687,0.96875 0.75,0 1.35938,-0.20312 0.625,-0.21875 1.09375,-0.53125 0.48437,-0.32812 0.8125,-0.70312 0.32812,-0.39063 0.5,-0.75 0.0313,-0.59376 0.0313,-1.3125 0,-0.73438 0,-1.65625 l 0,-3.04688 z"/>
	    <path d="m 255.46875,920.10937 q 0,-1.32812 -0.0469,-2.31249 -0.0313,-1 -0.0937,-1.71876 -0.0469,-0.71875 -0.14063,-1.20312 -0.0781,-0.48438 -0.17187,-0.8125 l 0,-0.0625 3.60937,0 0,0.0625 q -0.125,0.35937 -0.21875,0.875 -0.0781,0.51562 -0.125,1.32812 0.57813,-0.48437 1.20313,-0.95312 0.625,-0.46875 1.28125,-0.82813 0.65625,-0.35937 1.32812,-0.57812 0.6875,-0.21875 1.375,-0.21875 0.42188,0 0.73438,0.0469 0.3125,0.0313 0.5625,0.10937 0.25,0.0625 0.45312,0.15625 0.20313,0.0781 0.39063,0.15625 l -0.76563,2.98437 -0.26562,-0.0625 q -0.1875,-0.6875 -0.70313,-1.09374 -0.51562,-0.42188 -1.40625,-0.42188 -0.48437,0 -1.01562,0.17188 -0.53125,0.17187 -1.07813,0.48437 -0.54687,0.29688 -1.09375,0.70313 -0.54687,0.39062 -1.0625,0.82812 -0.0313,0.45312 -0.0313,0.98438 0,0.53124 0,1.125 l 0,4.03125 q 0,1.32812 0.0313,2.32812 0.0313,0.98437 0.0937,1.70313 0.0625,0.71875 0.14063,1.20312 0.0781,0.48438 0.17187,0.8125 l 0,0.0625 -3.60937,0 0,-0.0625 q 0.0937,-0.32812 0.17187,-0.8125 0.0937,-0.48437 0.14063,-1.20312 0.0625,-0.71876 0.0937,-1.70313 0.0469,-1 0.0469,-2.32812 l 0,-3.78126 z"/>
	    <path d="m 275.03125,930.28125 q -1.73437,0 -3.25,-0.54687 -1.51562,-0.54688 -2.64062,-1.59376 -1.125,-1.0625 -1.78125,-2.60937 -0.64063,-1.5625 -0.64063,-3.5625 0,-1.76563 0.59375,-3.26562 0.59375,-1.51563 1.64063,-2.62501 1.04687,-1.10937 2.4375,-1.73437 1.40625,-0.625 3.03125,-0.625 1.60937,0 2.98437,0.5625 1.375,0.54688 2.375,1.60938 1.01563,1.04687 1.59375,2.60937 0.59375,1.54687 0.64063,3.53125 -1.76563,-0.0313 -3.53125,-0.0469 -1.76563,-0.0156 -3.67188,-0.0156 -1.35937,0 -2.65625,0.0156 -1.28125,0.0156 -2.3125,0.0469 0.0937,1.625 0.5,2.9375 0.42188,1.3125 1.14063,2.25 0.73437,0.92187 1.76562,1.42188 1.04688,0.49999 2.35938,0.49999 0.90625,0 1.70312,-0.20312 0.8125,-0.21875 1.46875,-0.59375 0.65625,-0.375 1.17188,-0.875 0.51562,-0.51562 0.875,-1.10938 l 0.1875,0.0937 -1.15625,2.78125 q -0.84375,0.43751 -2.01563,0.75001 -1.17187,0.29687 -2.8125,0.29687 z M 272.95313,920.75 q 1.5625,0 3.125,0 1.57812,-0.0156 2.85937,-0.0625 -0.14062,-1.35938 -0.53125,-2.4375 -0.39062,-1.07813 -1,-1.82813 -0.60937,-0.74999 -1.4375,-1.15625 -0.82812,-0.40624 -1.82812,-0.40624 -0.90625,0 -1.67188,0.40624 -0.75,0.39063 -1.3125,1.14063 -0.5625,0.75 -0.90625,1.84375 -0.34375,1.07812 -0.40625,2.46875 0.70313,0.0313 1.48438,0.0313 0.78125,0 1.625,0 z"/>
	    <path d="m 309.48438,910.54688 6.25,15.17187 6.07812,-14.89062 q 0.35938,-0.92188 0.53125,-1.56251 0.17188,-0.64062 0.17188,-1.09375 0,-0.14062 -0.0156,-0.28124 -0.0156,-0.15625 -0.0469,-0.23438 l 0,-0.0625 3.09375,0 0,0.0625 q -0.3125,0.34375 -0.6875,1.09375 -0.35938,0.75 -0.84375,1.85938 l -8.34375,19.87499 -1.1875,0 -6.07813,-14.74999 -5.54687,14.74999 -1.17188,0 -7.65625,-19.10937 q -0.28125,-0.67187 -0.57812,-1.29688 -0.28125,-0.625 -0.54688,-1.12499 -0.25,-0.50001 -0.45312,-0.84376 -0.21875,-0.34374 -0.3125,-0.45312 l 0,-0.0625 4.32812,0 0,0.0625 q -0.0313,0.17188 -0.0313,0.26563 0,0.0937 0,0.21874 0,0.53126 0.10938,1.125 0.125,0.59376 0.46875,1.43751 l 5.875,14.84375 5.60937,-14.9375 0.98438,-0.0625 z"/>
	    <path d="m 327.25,920.10937 q 0,-1.32812 -0.0469,-2.31249 -0.0313,-1 -0.0937,-1.71876 -0.0469,-0.71875 -0.14063,-1.20312 -0.0781,-0.48438 -0.17187,-0.8125 l 0,-0.0625 3.60937,0 0,0.0625 q -0.0937,0.32812 -0.17187,0.8125 -0.0781,0.48437 -0.14063,1.20312 -0.0625,0.71876 -0.0937,1.71876 -0.0313,0.98437 -0.0313,2.31249 l 0,3.78126 q 0,1.32812 0.0313,2.32812 0.0313,0.98437 0.0937,1.70313 0.0625,0.71875 0.14063,1.20312 0.0781,0.48438 0.17187,0.8125 l 0,0.0625 -3.60937,0 0,-0.0625 q 0.0937,-0.32812 0.17187,-0.8125 0.0937,-0.48437 0.14063,-1.20312 0.0625,-0.71876 0.0937,-1.70313 0.0469,-1 0.0469,-2.32812 l 0,-3.78126 z m -0.32812,-10.84375 q 0,-0.34374 0.125,-0.64062 0.14062,-0.3125 0.35937,-0.53125 0.21875,-0.23437 0.51563,-0.35937 0.3125,-0.14063 0.67187,-0.14063 0.35938,0 0.65625,0.14063 0.3125,0.125 0.53125,0.35937 0.23438,0.21875 0.35938,0.53125 0.14062,0.29688 0.14062,0.64062 0,0.71876 -0.48437,1.20313 -0.48438,0.48438 -1.20313,0.48438 -0.35937,0 -0.67187,-0.125 -0.29688,-0.14063 -0.51563,-0.35938 -0.21875,-0.23438 -0.35937,-0.53125 -0.125,-0.3125 -0.125,-0.67188 z"/>
	    <path d="m 345.65625,919.46875 q 0,-2.0625 -0.82812,-3.03125 -0.82813,-0.96875 -2.21875,-0.96875 -0.5,0 -1.125,0.21875 -0.625,0.20313 -1.28125,0.5625 -0.65625,0.34375 -1.3125,0.8125 -0.65625,0.46875 -1.23438,1 l -0.0313,2.04687 0,3.78126 q 0,1.32812 0.0313,2.32812 0.0313,0.98437 0.0937,1.70313 0.0625,0.71875 0.14063,1.20312 0.0781,0.48438 0.17187,0.8125 l 0,0.0625 -3.60937,0 0,-0.0625 q 0.0937,-0.32812 0.17187,-0.8125 0.0937,-0.48437 0.14063,-1.20312 0.0625,-0.71876 0.0937,-1.70313 0.0469,-1 0.0469,-2.32812 l 0,-3.78126 q 0,-1.32812 -0.0469,-2.31249 -0.0313,-1 -0.0937,-1.71876 -0.0469,-0.71875 -0.14063,-1.20312 -0.0781,-0.48438 -0.17187,-0.8125 l 0,-0.0625 3.60937,0 0,0.0625 q -0.125,0.39062 -0.20312,1 -0.0625,0.59375 -0.14063,1.5625 0.64063,-0.53125 1.375,-1.0625 0.75,-0.53125 1.54688,-0.9375 0.79687,-0.42188 1.625,-0.67187 0.82812,-0.26563 1.625,-0.26563 1.21875,0 2.0625,0.42187 0.85937,0.42188 1.39062,1.10938 0.54688,0.6875 0.78125,1.57813 0.25,0.875 0.25,1.78125 l 0,5.3125 q 0,1.32812 0.0313,2.32812 0.0313,0.98437 0.0937,1.70313 0.0625,0.71875 0.14063,1.20312 0.0781,0.48438 0.17187,0.8125 l 0,0.0625 -3.60937,0 0,-0.0625 q 0.0937,-0.32812 0.17187,-0.8125 0.0937,-0.48437 0.14063,-1.20312 0.0625,-0.71876 0.0937,-1.70313 0.0469,-1 0.0469,-2.32812 l 0,-4.42188 z"/>
	    <path d="m 359.14063,937.14062 q 1.26562,0 2.14062,-0.28124 0.875,-0.26563 1.4375,-0.75001 0.57813,-0.48437 0.875,-1.17187 0.3125,-0.67188 0.45313,-1.48438 0.15625,-0.81249 0.17187,-1.73437 0.0313,-0.92187 0.0313,-1.90625 l 0,-0.51563 q -0.76562,0.40626 -1.84375,0.70313 -1.07812,0.28125 -2.4375,0.28125 -1.85937,0 -3.375,-0.57812 -1.51562,-0.57813 -2.59375,-1.65626 -1.0625,-1.07812 -1.64062,-2.60937 -0.57813,-1.54687 -0.57813,-3.46875 0,-1.76563 0.5625,-3.28125 0.57813,-1.51563 1.60938,-2.625 1.04687,-1.10937 2.48437,-1.73438 1.45313,-0.64062 3.20313,-0.64062 0.75,0 1.375,0.125 0.625,0.125 1.15625,0.34375 0.54687,0.20312 1.01562,0.48438 0.48438,0.26562 0.9375,0.57812 l -0.15625,-1.15625 0,-0.0625 3.45313,0 0,0.0625 q -0.0937,0.32812 -0.1875,0.8125 -0.0781,0.48437 -0.14063,1.20312 -0.0469,0.71876 -0.0937,1.71876 -0.0313,0.98437 -0.0313,2.31249 l 0,10.62501 q 0,1.43749 -0.39062,2.79687 -0.375,1.375 -1.29688,2.4375 -0.90625,1.0625 -2.40625,1.70313 -1.5,0.64062 -3.73437,0.64062 -0.78125,0 -1.57813,-0.15625 -0.79687,-0.14063 -1.51562,-0.35937 -0.71875,-0.20313 -1.29688,-0.45313 -0.57812,-0.25 -0.92187,-0.4375 l -0.48438,-3 0.25,-0.0625 q 0.375,0.8125 1.01563,1.42187 0.65625,0.62501 1.42187,1.03125 0.76563,0.42188 1.57813,0.62501 0.82812,0.21874 1.53125,0.21874 z m 1.53125,-8 q 1.125,0 2.03125,-0.37499 0.92187,-0.37501 1.54687,-0.875 l 0,-7.78126 q 0,-0.875 -0.0156,-1.57812 -0.0156,-0.71875 -0.0156,-1.29688 -0.375,-0.57812 -0.875,-1.01562 -0.48437,-0.45312 -1.04687,-0.75 -0.54688,-0.3125 -1.125,-0.46875 -0.57813,-0.17187 -1.14063,-0.17187 -1.1875,0 -2.14062,0.43749 -0.95313,0.43751 -1.625,1.26563 -0.65625,0.8125 -1.01563,2 -0.34375,1.17188 -0.34375,2.67187 0,1.68751 0.375,3.14063 0.375,1.45313 1.09375,2.53125 0.73438,1.0625 1.8125,1.67188 1.07813,0.59374 2.48438,0.59374 z"/>
	    <path d="m 378.78125,930.28125 q -1.73437,0 -3.25,-0.54687 -1.51562,-0.54688 -2.64062,-1.59376 -1.125,-1.0625 -1.78125,-2.60937 -0.64063,-1.5625 -0.64063,-3.5625 0,-1.76563 0.59375,-3.26562 0.59375,-1.51563 1.64063,-2.62501 1.04687,-1.10937 2.4375,-1.73437 1.40625,-0.625 3.03125,-0.625 1.60937,0 2.98437,0.5625 1.375,0.54688 2.375,1.60938 1.01563,1.04687 1.59375,2.60937 0.59375,1.54687 0.64063,3.53125 Q 384,922 382.23438,921.98438 q -1.76563,-0.0156 -3.67188,-0.0156 -1.35937,0 -2.65625,0.0156 -1.28125,0.0156 -2.3125,0.0469 0.0937,1.625 0.5,2.9375 0.42188,1.3125 1.14063,2.25 0.73437,0.92187 1.76562,1.42188 1.04688,0.49999 2.35938,0.49999 0.90625,0 1.70312,-0.20312 0.8125,-0.21875 1.46875,-0.59375 0.65625,-0.375 1.17188,-0.875 0.51562,-0.51562 0.875,-1.10938 l 0.1875,0.0937 -1.15625,2.78125 q -0.84375,0.43751 -2.01563,0.75001 -1.17187,0.29687 -2.8125,0.29687 z M 376.70313,920.75 q 1.5625,0 3.125,0 1.57812,-0.0156 2.85937,-0.0625 -0.14062,-1.35938 -0.53125,-2.4375 -0.39062,-1.07813 -1,-1.82813 -0.60937,-0.74999 -1.4375,-1.15625 -0.82812,-0.40624 -1.82812,-0.40624 -0.90625,0 -1.67188,0.40624 -0.75,0.39063 -1.3125,1.14063 -0.5625,0.75 -0.90625,1.84375 -0.34375,1.07812 -0.40625,2.46875 0.70313,0.0313 1.48438,0.0313 0.78125,0 1.625,0 z"/>
	    <path d="m 389.15625,920.10937 q 0,-1.32812 -0.0469,-2.31249 -0.0313,-1 -0.0937,-1.71876 -0.0469,-0.71875 -0.14063,-1.20312 -0.0781,-0.48438 -0.17187,-0.8125 l 0,-0.0625 3.60937,0 0,0.0625 q -0.125,0.35937 -0.21875,0.875 -0.0781,0.51562 -0.125,1.32812 0.57813,-0.48437 1.20313,-0.95312 0.625,-0.46875 1.28125,-0.82813 0.65625,-0.35937 1.32812,-0.57812 0.6875,-0.21875 1.375,-0.21875 0.42188,0 0.73438,0.0469 0.3125,0.0313 0.5625,0.10937 0.25,0.0625 0.45312,0.15625 0.20313,0.0781 0.39063,0.15625 l -0.76563,2.98437 -0.26562,-0.0625 q -0.1875,-0.6875 -0.70313,-1.09374 -0.51562,-0.42188 -1.40625,-0.42188 -0.48437,0 -1.01562,0.17188 -0.53125,0.17187 -1.07813,0.48437 -0.54687,0.29688 -1.09375,0.70313 -0.54687,0.39062 -1.0625,0.82812 -0.0313,0.45312 -0.0313,0.98438 0,0.53124 0,1.125 l 0,4.03125 q 0,1.32812 0.0313,2.32812 0.0313,0.98437 0.0937,1.70313 0.0625,0.71875 0.14063,1.20312 0.0781,0.48438 0.17187,0.8125 l 0,0.0625 -3.60937,0 0,-0.0625 q 0.0937,-0.32812 0.17187,-0.8125 0.0937,-0.48437 0.14063,-1.20312 0.0625,-0.71876 0.0937,-1.70313 0.0469,-1 0.0469,-2.32812 l 0,-3.78126 z"/>
	    <path d="m 426.67188,919.28125 q -0.625,-0.0156 -1.5625,-0.0156 -0.9375,-0.0156 -2.04688,-0.0313 -1.09375,-0.0156 -2.29687,-0.0156 -1.1875,-0.0156 -2.32813,-0.0156 -1.14062,-0.0156 -2.17187,0 -1.03125,0.0156 -1.79688,0.0469 l 0,4.64063 q 0,1.32812 0.0313,2.32812 0.0469,0.98437 0.0937,1.70313 0.0625,0.71875 0.14063,1.20312 0.0937,0.48438 0.1875,0.8125 l 0,0.0625 -3.75,0 0,-0.0625 q 0.0937,-0.32812 0.17187,-0.8125 0.0937,-0.48437 0.15625,-1.20312 0.0625,-0.71876 0.0937,-1.70313 0.0313,-1 0.0313,-2.32812 l 0,-10.17188 q 0,-1.32813 -0.0313,-2.3125 -0.0313,-1 -0.0937,-1.71875 -0.0625,-0.73437 -0.15625,-1.21875 -0.0781,-0.48437 -0.17187,-0.8125 l 0,-0.0625 3.75,0 0,0.0625 q -0.0937,0.32813 -0.1875,0.8125 -0.0781,0.48438 -0.14063,1.21875 -0.0469,0.71875 -0.0937,1.71875 -0.0313,0.98437 -0.0313,2.3125 l 0,4 q 0.8125,0.0313 1.84375,0.0469 1.03125,0 2.15625,0 1.125,-0.0156 2.28125,-0.0313 1.17188,-0.0156 2.25,-0.0313 1.09375,-0.0313 2.03125,-0.0625 0.95313,-0.0313 1.64063,-0.0625 l 0,-3.85938 q 0,-1.32813 -0.0469,-2.3125 -0.0313,-1 -0.0937,-1.71875 -0.0469,-0.73437 -0.14062,-1.21875 -0.0781,-0.48437 -0.17188,-0.8125 l 0,-0.0625 3.75,0 0,0.0625 q -0.0937,0.32813 -0.1875,0.8125 -0.0781,0.48438 -0.14062,1.21875 -0.0625,0.71875 -0.0937,1.71875 -0.0313,0.98437 -0.0313,2.3125 l 0,10.17188 q 0,1.32812 0.0313,2.32812 0.0313,0.98437 0.0937,1.70313 0.0625,0.71875 0.14062,1.20312 0.0937,0.48438 0.1875,0.8125 l 0,0.0625 -3.75,0 0,-0.0625 q 0.0937,-0.32812 0.17188,-0.8125 0.0937,-0.48437 0.14062,-1.20312 0.0625,-0.71876 0.0937,-1.70313 0.0469,-1 0.0469,-2.32812 l 0,-4.60938 z"/>
	    <path d="m 433.34375,925.39062 q 0,-1.23437 0.5,-2.14062 0.51563,-0.90625 1.35938,-1.54687 0.84375,-0.64063 1.92187,-1.03125 1.07813,-0.40626 2.23438,-0.62501 1.15625,-0.23437 2.28125,-0.31249 1.125,-0.0937 2.0625,-0.10938 l 0,-0.79687 q 0,-1.03125 -0.26563,-1.78126 -0.26562,-0.75 -0.75,-1.23437 -0.48437,-0.5 -1.17187,-0.73438 -0.67188,-0.24999 -1.48438,-0.24999 -0.5625,0 -1.10937,0.0937 -0.54688,0.0937 -1.14063,0.31249 -0.57812,0.21875 -1.23437,0.59376 -0.64063,0.37499 -1.39063,0.95312 L 435,916.6875 l 1.0625,-2.20313 q 0.51563,-0.23437 1.01563,-0.375 0.5,-0.15624 1.01562,-0.24999 0.51563,-0.0937 1.04688,-0.125 0.54687,-0.0469 1.14062,-0.0469 1.64063,0 2.79688,0.40625 1.17187,0.39062 1.90625,1.09375 0.75,0.6875 1.09375,1.625 0.34375,0.92188 0.34375,1.98438 l 0,5.09375 q 0,1.32812 0.0313,2.32812 0.0469,0.98437 0.0937,1.70313 0.0625,0.71875 0.14062,1.20312 0.0937,0.48438 0.1875,0.8125 l 0,0.0625 -3.45312,0 0,-0.0625 q 0.0781,-0.25 0.10937,-0.5625 0.0469,-0.3125 0.0781,-0.75 -0.32813,0.28125 -0.78125,0.57812 -0.4375,0.29688 -1.01563,0.54688 -0.5625,0.23438 -1.26562,0.375 -0.6875,0.15625 -1.51563,0.15625 -2.71875,0 -4.20312,-1.26563 -1.48438,-1.28124 -1.48438,-3.625 z m 10.35938,-4.54687 q -1.42188,0.0156 -2.73438,0.17187 -1.3125,0.14063 -2.32812,0.60938 -1,0.46875 -1.60938,1.34375 -0.59375,0.85938 -0.59375,2.29687 0,1.84375 0.92188,2.8125 0.92187,0.96875 2.54687,0.96875 0.75,0 1.35938,-0.20312 0.625,-0.21875 1.09375,-0.53125 0.48437,-0.32812 0.8125,-0.70312 0.32812,-0.39063 0.5,-0.75 0.0313,-0.59376 0.0313,-1.3125 0,-0.73438 0,-1.65625 l 0,-3.04688 z"/>
	    <path d="m 451.15625,920.10937 q 0,-1.32812 -0.0469,-2.31249 -0.0313,-1 -0.0937,-1.71876 -0.0469,-0.71875 -0.14063,-1.20312 -0.0781,-0.48438 -0.17187,-0.8125 l 0,-0.0625 3.60937,0 0,0.0625 q -0.125,0.35937 -0.21875,0.875 -0.0781,0.51562 -0.125,1.32812 0.57813,-0.48437 1.20313,-0.95312 0.625,-0.46875 1.28125,-0.82813 0.65625,-0.35937 1.32812,-0.57812 0.6875,-0.21875 1.375,-0.21875 0.42188,0 0.73438,0.0469 0.3125,0.0313 0.5625,0.10937 0.25,0.0625 0.45312,0.15625 0.20313,0.0781 0.39063,0.15625 l -0.76563,2.98437 -0.26562,-0.0625 q -0.1875,-0.6875 -0.70313,-1.09374 -0.51562,-0.42188 -1.40625,-0.42188 -0.48437,0 -1.01562,0.17188 -0.53125,0.17187 -1.07813,0.48437 -0.54687,0.29688 -1.09375,0.70313 -0.54687,0.39062 -1.0625,0.82812 -0.0313,0.45312 -0.0313,0.98438 0,0.53124 0,1.125 l 0,4.03125 q 0,1.32812 0.0313,2.32812 0.0313,0.98437 0.0937,1.70313 0.0625,0.71875 0.14063,1.20312 0.0781,0.48438 0.17187,0.8125 l 0,0.0625 -3.60937,0 0,-0.0625 q 0.0937,-0.32812 0.17187,-0.8125 0.0937,-0.48437 0.14063,-1.20312 0.0625,-0.71876 0.0937,-1.70313 0.0469,-1 0.0469,-2.32812 l 0,-3.78126 z"/>
	    <path d="m 463.71875,920.10937 q 0,-1.32812 -0.0469,-2.31249 -0.0313,-1 -0.0937,-1.71876 -0.0469,-0.71875 -0.14063,-1.20312 -0.0781,-0.48438 -0.17187,-0.8125 l 0,-0.0625 3.60937,0 0,0.0625 q -0.125,0.35937 -0.21875,0.875 -0.0781,0.51562 -0.125,1.32812 0.57813,-0.48437 1.20313,-0.95312 0.625,-0.46875 1.28125,-0.82813 0.65625,-0.35937 1.32812,-0.57812 0.6875,-0.21875 1.375,-0.21875 0.42188,0 0.73438,0.0469 0.3125,0.0313 0.5625,0.10937 0.25,0.0625 0.45312,0.15625 0.20313,0.0781 0.39063,0.15625 l -0.76563,2.98437 -0.26562,-0.0625 q -0.1875,-0.6875 -0.70313,-1.09374 -0.51562,-0.42188 -1.40625,-0.42188 -0.48437,0 -1.01562,0.17188 -0.53125,0.17187 -1.07813,0.48437 -0.54687,0.29688 -1.09375,0.70313 -0.54687,0.39062 -1.0625,0.82812 -0.0313,0.45312 -0.0313,0.98438 0,0.53124 0,1.125 l 0,4.03125 q 0,1.32812 0.0313,2.32812 0.0313,0.98437 0.0937,1.70313 0.0625,0.71875 0.14063,1.20312 0.0781,0.48438 0.17187,0.8125 l 0,0.0625 -3.60937,0 0,-0.0625 q 0.0937,-0.32812 0.17187,-0.8125 0.0937,-0.48437 0.14063,-1.20312 0.0625,-0.71876 0.0937,-1.70313 0.0469,-1 0.0469,-2.32812 l 0,-3.78126 z"/>
	    <path d="m 476.375,920.10937 q 0,-1.32812 -0.0469,-2.31249 -0.0313,-1 -0.0937,-1.71876 -0.0469,-0.71875 -0.14063,-1.20312 -0.0781,-0.48438 -0.17187,-0.8125 l 0,-0.0625 3.60937,0 0,0.0625 q -0.0937,0.32812 -0.17187,0.8125 -0.0781,0.48437 -0.14063,1.20312 -0.0625,0.71876 -0.0937,1.71876 -0.0313,0.98437 -0.0313,2.31249 l 0,3.78126 q 0,1.32812 0.0313,2.32812 0.0313,0.98437 0.0937,1.70313 0.0625,0.71875 0.14063,1.20312 0.0781,0.48438 0.17187,0.8125 l 0,0.0625 -3.60937,0 0,-0.0625 q 0.0937,-0.32812 0.17187,-0.8125 0.0937,-0.48437 0.14063,-1.20312 0.0625,-0.71876 0.0937,-1.70313 0.0469,-1 0.0469,-2.32812 l 0,-3.78126 z m -0.32812,-10.84375 q 0,-0.34374 0.125,-0.64062 0.14062,-0.3125 0.35937,-0.53125 0.21875,-0.23437 0.51563,-0.35937 0.3125,-0.14063 0.67187,-0.14063 0.35938,0 0.65625,0.14063 0.3125,0.125 0.53125,0.35937 0.23438,0.21875 0.35938,0.53125 0.14062,0.29688 0.14062,0.64062 0,0.71876 -0.48437,1.20313 -0.48438,0.48438 -1.20313,0.48438 -0.35937,0 -0.67187,-0.125 -0.29688,-0.14063 -0.51563,-0.35938 -0.21875,-0.23438 -0.35937,-0.53125 -0.125,-0.3125 -0.125,-0.67188 z"/>
	    <path d="m 491.09375,917.14062 -0.21875,0.0313 q -0.10937,-0.35937 -0.35937,-0.76562 -0.23438,-0.40625 -0.625,-0.75 -0.375,-0.34375 -0.92188,-0.5625 -0.53125,-0.23437 -1.23437,-0.23437 -0.48438,0 -0.92188,0.14062 -0.42187,0.14062 -0.75,0.42187 -0.3125,0.26563 -0.5,0.67188 -0.1875,0.40625 -0.1875,0.95312 0,0.76563 0.46875,1.46876 0.48438,0.68749 1.20313,1.375 0.71875,0.67187 1.54687,1.35937 0.84375,0.6875 1.5625,1.4375 0.71875,0.75 1.1875,1.60937 0.48438,0.84375 0.48438,1.82813 0,0.79688 -0.28125,1.5625 -0.28125,0.75 -0.875,1.34375 -0.57813,0.59375 -1.5,0.96875 -0.90625,0.35937 -2.17188,0.35937 -0.75,0 -1.40625,-0.14062 -0.64062,-0.14063 -1.1875,-0.34375 -0.53125,-0.21875 -0.96875,-0.46875 -0.42187,-0.26563 -0.75,-0.5 l 0.15625,-2.96875 0.25,0 q 0.15625,0.73438 0.46875,1.34375 0.3125,0.60938 0.76563,1.04687 0.46875,0.42188 1.0625,0.67188 0.59375,0.23437 1.29687,0.23437 1.15625,0 1.82813,-0.64062 0.6875,-0.64062 0.6875,-1.67187 0,-0.82813 -0.46875,-1.51563 -0.45313,-0.70312 -1.15625,-1.34375 -0.70313,-0.64063 -1.51563,-1.28125 -0.79687,-0.64063 -1.5,-1.35938 -0.70312,-0.73437 -1.17187,-1.59374 -0.45313,-0.875 -0.45313,-1.98438 0,-0.90625 0.32813,-1.65625 0.34375,-0.76563 0.9375,-1.29687 0.60937,-0.54688 1.4375,-0.84376 0.82812,-0.29687 1.8125,-0.29687 1.29687,0 2.15625,0.28125 0.875,0.26562 1.32812,0.51563 l 0.15625,2.59374 z"/>
	  </g>
	</g>
</svg>
